<mxfile host="app.diagrams.net" agent="Mozilla/5.0 (Windows NT 10.0; Win64; x64) AppleWebKit/537.36 (KHTML, like Gecko) Chrome/131.0.0.0 Safari/537.36 OPR/116.0.0.0" version="26.0.16">
  <diagram name="Página-1" id="SwQKMk2zp1gwW1Hns5_v">
    <mxGraphModel dx="1390" dy="785" grid="1" gridSize="10" guides="1" tooltips="1" connect="1" arrows="1" fold="1" page="1" pageScale="1" pageWidth="827" pageHeight="1169" math="0" shadow="0">
      <root>
        <mxCell id="0" />
        <mxCell id="1" parent="0" />
        <mxCell id="wP9VcYAFsaQRxzzzHZZ8-3" style="edgeStyle=orthogonalEdgeStyle;rounded=0;orthogonalLoop=1;jettySize=auto;html=1;entryX=0.5;entryY=0;entryDx=0;entryDy=0;" edge="1" parent="1" source="wP9VcYAFsaQRxzzzHZZ8-1" target="wP9VcYAFsaQRxzzzHZZ8-2">
          <mxGeometry relative="1" as="geometry" />
        </mxCell>
        <mxCell id="wP9VcYAFsaQRxzzzHZZ8-1" value="Taverna Casco da Tartaruga" style="ellipse;whiteSpace=wrap;html=1;aspect=fixed;" vertex="1" parent="1">
          <mxGeometry x="30" y="20" width="80" height="80" as="geometry" />
        </mxCell>
        <mxCell id="wP9VcYAFsaQRxzzzHZZ8-6" style="edgeStyle=orthogonalEdgeStyle;rounded=0;orthogonalLoop=1;jettySize=auto;html=1;exitX=1;exitY=0.5;exitDx=0;exitDy=0;" edge="1" parent="1" source="wP9VcYAFsaQRxzzzHZZ8-2" target="wP9VcYAFsaQRxzzzHZZ8-5">
          <mxGeometry relative="1" as="geometry" />
        </mxCell>
        <mxCell id="wP9VcYAFsaQRxzzzHZZ8-8" style="edgeStyle=orthogonalEdgeStyle;rounded=0;orthogonalLoop=1;jettySize=auto;html=1;exitX=0.5;exitY=1;exitDx=0;exitDy=0;entryX=0.5;entryY=0;entryDx=0;entryDy=0;" edge="1" parent="1" source="wP9VcYAFsaQRxzzzHZZ8-2" target="wP9VcYAFsaQRxzzzHZZ8-7">
          <mxGeometry relative="1" as="geometry" />
        </mxCell>
        <mxCell id="wP9VcYAFsaQRxzzzHZZ8-9" style="edgeStyle=orthogonalEdgeStyle;rounded=0;orthogonalLoop=1;jettySize=auto;html=1;exitX=1;exitY=1;exitDx=0;exitDy=0;entryX=0;entryY=0.25;entryDx=0;entryDy=0;" edge="1" parent="1" source="wP9VcYAFsaQRxzzzHZZ8-2" target="wP9VcYAFsaQRxzzzHZZ8-10">
          <mxGeometry relative="1" as="geometry">
            <mxPoint x="200" y="270" as="targetPoint" />
          </mxGeometry>
        </mxCell>
        <mxCell id="wP9VcYAFsaQRxzzzHZZ8-2" value="Tailox Desesperada" style="rhombus;whiteSpace=wrap;html=1;" vertex="1" parent="1">
          <mxGeometry x="10" y="140" width="150" height="50" as="geometry" />
        </mxCell>
        <mxCell id="wP9VcYAFsaQRxzzzHZZ8-5" value="Eles ajudam" style="whiteSpace=wrap;html=1;aspect=fixed;" vertex="1" parent="1">
          <mxGeometry x="220" y="125" width="80" height="80" as="geometry" />
        </mxCell>
        <mxCell id="wP9VcYAFsaQRxzzzHZZ8-7" value="Eles não ajudam" style="whiteSpace=wrap;html=1;aspect=fixed;" vertex="1" parent="1">
          <mxGeometry x="45" y="260" width="80" height="80" as="geometry" />
        </mxCell>
        <mxCell id="wP9VcYAFsaQRxzzzHZZ8-10" value="Alguns ajudam outros não" style="whiteSpace=wrap;html=1;aspect=fixed;" vertex="1" parent="1">
          <mxGeometry x="220" y="250" width="80" height="80" as="geometry" />
        </mxCell>
      </root>
    </mxGraphModel>
  </diagram>
</mxfile>
